<?xml version="1.0" standalone="no"?>
<!DOCTYPE svg PUBLIC "-//W3C//DTD SVG 20010904//EN"
 "http://www.w3.org/TR/2001/REC-SVG-20010904/DTD/svg10.dtd">
<svg version="1.0" xmlns="http://www.w3.org/2000/svg"
 width="1280.000000pt" height="1157.000000pt" viewBox="0 0 1280.000000 1157.000000"
 preserveAspectRatio="xMidYMid meet">
<g transform="translate(0.000000,1157.000000) scale(0.100000,-0.100000)"
fill="#000000" stroke="none">
<path d="M3490 11558 c-30 -5 -108 -18 -172 -28 -436 -73 -862 -339 -1129
-706 -34 -46 -67 -83 -72 -81 -6 2 -16 25 -23 53 -16 69 -28 95 -60 133 -59
71 -151 88 -242 46 -57 -27 -150 -109 -183 -162 -11 -18 -27 -33 -35 -33 -8 0
-42 23 -76 51 -139 111 -318 172 -452 151 -407 -63 -673 -640 -790 -1712 -33
-295 -62 -1067 -48 -1240 l7 -85 54 -8 c30 -4 58 -4 61 0 4 5 15 37 24 73 71
265 207 691 318 995 189 516 364 860 568 1115 77 96 186 207 195 198 4 -3 10
-36 16 -73 31 -218 175 -301 345 -199 32 19 59 32 62 29 3 -2 0 -44 -7 -93
-18 -142 -14 -389 9 -527 62 -380 222 -702 484 -973 302 -313 656 -487 1109
-547 27 -4 47 -11 47 -19 0 -14 -898 -2097 -909 -2109 -4 -4 -367 120 -807
277 -759 270 -799 285 -797 308 1 12 13 64 27 113 29 105 34 248 12 332 -88
332 -443 416 -734 174 -75 -63 -152 -163 -202 -266 -40 -81 -90 -265 -90 -329
0 -50 38 -193 66 -249 35 -68 112 -143 182 -175 51 -24 68 -27 167 -27 95 1
118 4 171 27 111 46 198 117 302 242 13 15 29 26 35 23 7 -2 371 -132 810
-288 581 -206 797 -287 797 -298 0 -9 -362 -855 -805 -1881 -443 -1027 -805
-1872 -805 -1878 0 -9 213 -12 899 -12 810 0 899 -2 905 -16 10 -25 7 -787 -3
-803 -8 -12 -18 -12 -72 2 -105 26 -266 40 -373 33 -356 -23 -623 -161 -728
-374 -31 -62 -33 -74 -33 -167 0 -97 2 -104 37 -177 104 -209 379 -347 728
-364 219 -11 406 23 575 106 241 117 353 288 324 494 -17 126 -120 261 -264
346 l-60 36 0 439 0 440 780 0 780 0 0 -434 0 -434 -68 -41 c-231 -141 -317
-366 -221 -574 43 -91 157 -197 274 -255 407 -200 1002 -129 1250 150 130 146
146 353 39 509 -65 95 -199 191 -338 242 -213 77 -521 93 -731 37 -50 -13 -56
-13 -67 2 -10 13 -13 106 -13 387 0 204 3 381 6 394 l6 22 900 0 900 0 -4 22
c-3 13 -366 858 -807 1879 -440 1021 -801 1862 -801 1867 0 6 8 16 19 21 50
27 1594 569 1606 564 8 -3 15 -9 15 -13 0 -20 134 -149 198 -191 105 -69 156
-84 282 -84 93 0 112 3 162 27 159 74 247 246 234 458 -6 117 -26 191 -76 295
-156 322 -480 486 -723 367 -194 -96 -275 -341 -201 -607 14 -49 26 -101 27
-113 2 -23 -37 -38 -793 -307 -437 -155 -800 -281 -806 -278 -11 4 -914 2089
-914 2111 0 6 3 12 6 12 29 0 235 35 296 51 667 169 1183 709 1324 1388 41
200 48 442 19 659 -4 28 -4 52 1 52 5 0 28 -14 52 -30 59 -39 134 -56 190 -41
89 24 144 103 163 236 6 41 15 75 19 75 15 0 169 -169 237 -261 144 -190 265
-414 397 -731 123 -297 290 -784 406 -1186 32 -112 60 -206 63 -208 2 -2 28
-1 58 3 l53 8 9 45 c9 51 1 590 -14 845 -69 1242 -333 1994 -744 2128 -165 54
-346 10 -524 -128 -67 -51 -101 -67 -101 -46 0 5 -30 41 -67 81 -108 117 -213
155 -308 111 -68 -30 -106 -85 -129 -186 -6 -27 -17 -50 -23 -50 -6 0 -39 38
-74 83 -209 281 -496 498 -814 617 -254 95 -592 144 -775 113z"/>
<path d="M9825 11234 c-326 -44 -626 -169 -880 -369 -103 -81 -266 -248 -341
-351 -329 -446 -441 -1017 -304 -1558 148 -586 593 -1074 1161 -1274 109 -39
286 -78 413 -92 54 -6 102 -13 107 -16 11 -7 12 -1801 1 -1808 -10 -6 -1662
580 -1676 595 -6 5 -4 27 7 56 31 88 47 177 47 263 0 200 -84 350 -238 423
-62 29 -75 32 -162 31 -150 -2 -266 -54 -388 -175 -269 -266 -322 -679 -116
-899 121 -129 303 -151 494 -59 72 35 100 57 184 141 86 88 101 99 125 94 14
-3 409 -142 876 -309 l850 -303 3 -652 2 -652 -712 -2 -713 -3 -3 -1167 -2
-1168 292 -2 293 -3 3 -454 c1 -250 -1 -458 -6 -463 -4 -4 -52 2 -107 14 -121
26 -367 31 -485 9 -408 -74 -664 -322 -611 -592 47 -238 269 -402 631 -465
189 -33 242 -31 475 16 177 35 349 122 442 223 196 212 151 500 -104 666 -43
27 -86 57 -95 66 -17 14 -18 50 -18 488 0 355 3 476 12 485 9 9 90 12 304 12
l293 0 11 58 c99 475 158 727 171 727 7 0 15 -9 17 -20 2 -11 39 -185 83 -387
43 -202 79 -370 79 -373 0 -2 134 -6 298 -7 l297 -3 2 -485 3 -485 -61 -34
c-362 -208 -356 -608 12 -816 79 -45 205 -90 316 -112 128 -25 376 -23 503 4
385 83 616 318 570 581 -39 227 -259 397 -600 464 -38 7 -137 12 -240 12 -141
0 -192 -5 -265 -21 -49 -12 -93 -18 -98 -14 -4 4 -6 209 -5 457 l3 449 293 3
292 2 -2 1168 -3 1167 -713 3 -712 2 2 652 3 653 835 297 c459 164 853 303
876 310 l41 11 99 -100 c84 -85 112 -107 184 -142 145 -70 272 -75 395 -15
104 51 178 155 215 302 25 100 25 137 -4 252 -47 188 -115 309 -240 428 -124
117 -234 166 -376 167 -176 0 -302 -89 -372 -264 -19 -48 -22 -75 -23 -191 0
-122 3 -143 29 -223 17 -51 25 -92 20 -97 -14 -14 -1667 -599 -1676 -594 -8 5
-12 1814 -4 1814 49 0 239 27 325 46 685 153 1229 705 1377 1398 129 609 -47
1228 -475 1669 -248 256 -526 418 -861 502 -208 53 -466 68 -675 39z"/>
</g>
</svg>
